#Comment line ignore any data following # character 
#Hierarchical Translation and Rotation (.htr) file 
[Header]	
#Header keywords are followed by a single value 
FileType HTR		#Single word string
DataType HTRS		#Translation followed by rotation and scale data
FileVersion 1		#integer
NumSegments 84		#integer
NumFrames 2		#integer
DataFrameRate 30		#integer, data frame rate in this file
EulerRotationOrder ZYX
CalibrationUnits mm
RotationUnits Degrees
GlobalAxisofGravity Y
BoneLengthAxis Y
ScaleFactor 1.00
[SegmentNames&Hierarchy]
#CHILD	PARENT
MASTER GLOBAL
root MASTER
chest root
L_mid_tent01 root
R_mid_tent01 root
spine01 root
Bip01_Neck chest
L_humerus chest
R_humerus chest
weapon_bone chest
Bip01_Head Bip01_Neck
eye_left_bone Bip01_Head
eye_right_bone Bip01_Head
L_forearm L_humerus
L_front_hand L_forearm
L_weapon_bone L_forearm
L_front_hand01_01 L_front_hand
L_front_hand02_01 L_front_hand
L_front_hand03_01 L_front_hand
L_front_hand01_02 L_front_hand01_01
L_front_hand02_02 L_front_hand02_01
L_front_hand03_02 L_front_hand03_01
R_forearm R_humerus
R_front_hand R_forearm
R_weapon_bone R_forearm
R_front_hand01_01 R_front_hand
R_front_hand02_01 R_front_hand
R_front_hand03_01 R_front_hand
R_front_hand01_02 R_front_hand01_01
R_front_hand02_02 R_front_hand02_01
R_front_hand03_02 R_front_hand03_01
null_rope01_connect L_mid_tent01
Rope1_Seg01 null_rope01_connect
Rope1_Seg02 Rope1_Seg01
Rope1_Seg03 Rope1_Seg02
Rope1_Seg04 Rope1_Seg03
Rope1_Seg05 Rope1_Seg04
Rope1_Seg06 Rope1_Seg05
Rope1_Seg07 Rope1_Seg06
Rope1_Seg09 Rope1_Seg07
L_mid_hand01 Rope1_Seg09
L_mid_hand02 Rope1_Seg09
L_mid_hand03 Rope1_Seg09
null_rope02_connect R_mid_tent01
Rope2_Seg01 null_rope02_connect
Rope2_Seg02 Rope2_Seg01
Rope2_Seg03 Rope2_Seg02
Rope2_Seg04 Rope2_Seg03
Rope2_Seg05 Rope2_Seg04
Rope2_Seg06 Rope2_Seg05
Rope2_Seg07 Rope2_Seg06
Rope2_Seg09 Rope2_Seg07
R_mid_hand01 Rope2_Seg09
R_mid_hand02 Rope2_Seg09
R_mid_hand03 Rope2_Seg09
spine02 spine01
spine03 spine02
pelvis spine03
null_rope03_connect pelvis
null_rope04_connect pelvis
Rope3_Seg01 null_rope03_connect
Rope3_Seg02 Rope3_Seg01
Rope3_Seg03 Rope3_Seg02
Rope3_Seg04 Rope3_Seg03
Rope3_Seg05 Rope3_Seg04
Rope3_Seg06 Rope3_Seg05
Rope3_Seg07 Rope3_Seg06
Rope3_Seg08 Rope3_Seg07
Rope3_Seg09 Rope3_Seg08
R_rear_hand01 Rope3_Seg09
R_rear_hand02 Rope3_Seg09
R_rear_hand03 Rope3_Seg09
Rope4_Seg01 null_rope04_connect
Rope4_Seg02 Rope4_Seg01
Rope4_Seg03 Rope4_Seg02
Rope4_Seg04 Rope4_Seg03
Rope4_Seg05 Rope4_Seg04
Rope4_Seg06 Rope4_Seg05
Rope4_Seg07 Rope4_Seg06
Rope4_Seg08 Rope4_Seg07
Rope4_Seg09 Rope4_Seg08
L_rear_hand01 Rope4_Seg09
L_rear_hand02 Rope4_Seg09
L_rear_hand03 Rope4_Seg09
[BasePosition]
#SegmentName Tx, Ty, Tz, Rx, Ry, Rz, BoneLength
MASTER 0.000000 0.000000 0.000000 -90.000000 0.000000 0.000000 10.000000 
root 0.000000 0.000000 0.000000 0.000000 0.000000 0.000000 10.000000 
chest 0.000000 0.000000 0.000000 0.000000 0.000000 0.000000 10.000000 
L_mid_tent01 0.000000 0.000000 0.000000 0.000000 0.000000 0.000000 10.000000 
R_mid_tent01 0.000000 0.000000 0.000000 0.000000 0.000000 0.000000 10.000000 
spine01 0.000000 0.000000 0.000000 0.000000 0.000000 0.000000 10.000000 
Bip01_Neck 0.000000 0.000000 0.000000 0.000000 0.000000 0.000000 10.000000 
L_humerus 0.000000 0.000000 0.000000 0.000000 0.000000 0.000000 10.000000 
R_humerus 0.000000 0.000000 0.000000 0.000000 0.000000 0.000000 10.000000 
weapon_bone 0.000000 0.000000 0.000000 0.000000 0.000000 0.000000 10.000000 
Bip01_Head 0.000000 0.000000 0.000000 0.000000 0.000000 0.000000 10.000000 
eye_left_bone 0.000000 0.000000 0.000000 0.000000 0.000000 0.000000 10.000000 
eye_right_bone 0.000000 0.000000 0.000000 0.000000 0.000000 0.000000 10.000000 
L_forearm 0.000000 0.000000 0.000000 0.000000 0.000000 0.000000 10.000000 
L_front_hand 0.000000 0.000000 0.000000 0.000000 0.000000 0.000000 10.000000 
L_weapon_bone 0.000000 0.000000 0.000000 0.000000 0.000000 0.000000 10.000000 
L_front_hand01_01 0.000000 0.000000 0.000000 0.000000 0.000000 0.000000 10.000000 
L_front_hand02_01 0.000000 0.000000 0.000000 0.000000 0.000000 0.000000 10.000000 
L_front_hand03_01 0.000000 0.000000 0.000000 0.000000 0.000000 0.000000 10.000000 
L_front_hand01_02 0.000000 0.000000 0.000000 0.000000 0.000000 0.000000 10.000000 
L_front_hand02_02 0.000000 0.000000 0.000000 0.000000 0.000000 0.000000 10.000000 
L_front_hand03_02 0.000000 0.000000 0.000000 0.000000 0.000000 0.000000 10.000000 
R_forearm 0.000000 0.000000 0.000000 0.000000 0.000000 0.000000 10.000000 
R_front_hand 0.000000 0.000000 0.000000 0.000000 0.000000 0.000000 10.000000 
R_weapon_bone 0.000000 0.000000 0.000000 0.000000 0.000000 0.000000 10.000000 
R_front_hand01_01 0.000000 0.000000 0.000000 0.000000 0.000000 0.000000 10.000000 
R_front_hand02_01 0.000000 0.000000 0.000000 0.000000 0.000000 0.000000 10.000000 
R_front_hand03_01 0.000000 0.000000 0.000000 0.000000 0.000000 0.000000 10.000000 
R_front_hand01_02 0.000000 0.000000 0.000000 0.000000 0.000000 0.000000 10.000000 
R_front_hand02_02 0.000000 0.000000 0.000000 0.000000 0.000000 0.000000 10.000000 
R_front_hand03_02 0.000000 0.000000 0.000000 0.000000 0.000000 0.000000 10.000000 
null_rope01_connect 0.000000 0.000000 0.000000 0.000000 0.000000 0.000000 10.000000 
Rope1_Seg01 0.000000 0.000000 0.000000 0.000000 0.000000 0.000000 10.000000 
Rope1_Seg02 0.000000 0.000000 0.000000 0.000000 0.000000 0.000000 10.000000 
Rope1_Seg03 0.000000 0.000000 0.000000 0.000000 0.000000 0.000000 10.000000 
Rope1_Seg04 0.000000 0.000000 0.000000 0.000000 0.000000 0.000000 10.000000 
Rope1_Seg05 0.000000 0.000000 0.000000 0.000000 0.000000 0.000000 10.000000 
Rope1_Seg06 0.000000 0.000000 0.000000 0.000000 0.000000 0.000000 10.000000 
Rope1_Seg07 0.000000 0.000000 0.000000 0.000000 0.000000 0.000000 10.000000 
Rope1_Seg09 0.000000 0.000000 0.000000 0.000000 0.000000 0.000000 10.000000 
L_mid_hand01 0.000000 0.000000 0.000000 0.000000 0.000000 0.000000 10.000000 
L_mid_hand02 0.000000 0.000000 0.000000 0.000000 0.000000 0.000000 10.000000 
L_mid_hand03 0.000000 0.000000 0.000000 0.000000 0.000000 0.000000 10.000000 
null_rope02_connect 0.000000 0.000000 0.000000 0.000000 0.000000 0.000000 10.000000 
Rope2_Seg01 0.000000 0.000000 0.000000 0.000000 0.000000 0.000000 10.000000 
Rope2_Seg02 0.000000 0.000000 0.000000 0.000000 0.000000 0.000000 10.000000 
Rope2_Seg03 0.000000 0.000000 0.000000 0.000000 0.000000 0.000000 10.000000 
Rope2_Seg04 0.000000 0.000000 0.000000 0.000000 0.000000 0.000000 10.000000 
Rope2_Seg05 0.000000 0.000000 0.000000 0.000000 0.000000 0.000000 10.000000 
Rope2_Seg06 0.000000 0.000000 0.000000 0.000000 0.000000 0.000000 10.000000 
Rope2_Seg07 0.000000 0.000000 0.000000 0.000000 0.000000 0.000000 10.000000 
Rope2_Seg09 0.000000 0.000000 0.000000 0.000000 0.000000 0.000000 10.000000 
R_mid_hand01 0.000000 0.000000 0.000000 0.000000 0.000000 0.000000 10.000000 
R_mid_hand02 0.000000 0.000000 0.000000 0.000000 0.000000 0.000000 10.000000 
R_mid_hand03 0.000000 0.000000 0.000000 0.000000 0.000000 0.000000 10.000000 
spine02 0.000000 0.000000 0.000000 0.000000 0.000000 0.000000 10.000000 
spine03 0.000000 0.000000 0.000000 0.000000 0.000000 0.000000 10.000000 
pelvis 0.000000 0.000000 0.000000 0.000000 0.000000 0.000000 10.000000 
null_rope03_connect 0.000000 0.000000 0.000000 0.000000 0.000000 0.000000 10.000000 
null_rope04_connect 0.000000 0.000000 0.000000 0.000000 0.000000 0.000000 10.000000 
Rope3_Seg01 0.000000 0.000000 0.000000 0.000000 0.000000 0.000000 10.000000 
Rope3_Seg02 0.000000 0.000000 0.000000 0.000000 0.000000 0.000000 10.000000 
Rope3_Seg03 0.000000 0.000000 0.000000 0.000000 0.000000 0.000000 10.000000 
Rope3_Seg04 0.000000 0.000000 0.000000 0.000000 0.000000 0.000000 10.000000 
Rope3_Seg05 0.000000 0.000000 0.000000 0.000000 0.000000 0.000000 10.000000 
Rope3_Seg06 0.000000 0.000000 0.000000 0.000000 0.000000 0.000000 10.000000 
Rope3_Seg07 0.000000 0.000000 0.000000 0.000000 0.000000 0.000000 10.000000 
Rope3_Seg08 0.000000 0.000000 0.000000 0.000000 0.000000 0.000000 10.000000 
Rope3_Seg09 0.000000 0.000000 0.000000 0.000000 0.000000 0.000000 10.000000 
R_rear_hand01 0.000000 0.000000 0.000000 0.000000 0.000000 0.000000 10.000000 
R_rear_hand02 0.000000 0.000000 0.000000 0.000000 0.000000 0.000000 10.000000 
R_rear_hand03 0.000000 0.000000 0.000000 0.000000 0.000000 0.000000 10.000000 
Rope4_Seg01 0.000000 0.000000 0.000000 0.000000 0.000000 0.000000 10.000000 
Rope4_Seg02 0.000000 0.000000 0.000000 0.000000 0.000000 0.000000 10.000000 
Rope4_Seg03 0.000000 0.000000 0.000000 0.000000 0.000000 0.000000 10.000000 
Rope4_Seg04 0.000000 0.000000 0.000000 0.000000 0.000000 0.000000 10.000000 
Rope4_Seg05 0.000000 0.000000 0.000000 0.000000 0.000000 0.000000 10.000000 
Rope4_Seg06 0.000000 0.000000 0.000000 0.000000 0.000000 0.000000 10.000000 
Rope4_Seg07 0.000000 0.000000 0.000000 0.000000 0.000000 0.000000 10.000000 
Rope4_Seg08 0.000000 0.000000 0.000000 0.000000 0.000000 0.000000 10.000000 
Rope4_Seg09 0.000000 0.000000 0.000000 0.000000 0.000000 0.000000 10.000000 
L_rear_hand01 0.000000 0.000000 0.000000 0.000000 0.000000 0.000000 10.000000 
L_rear_hand02 0.000000 0.000000 0.000000 0.000000 0.000000 0.000000 10.000000 
L_rear_hand03 0.000000 0.000000 0.000000 0.000000 0.000000 0.000000 10.000000 
#Beginning of Data. Separated by tabs
#Fr	Tx	Ty	Tz	Rx	Ry	Rz	SF
[MASTER]
26 -0.000600 3981.990234 -2050.628418 0.001660 0.001660 0.001660 4478.986816
27 -0.000609 4038.311523 -2197.578857 0.001660 0.001660 0.001660 4597.533691
[root]
26 32.504620 -102.423401 406.267212 -105.670174 -21.814604 -90.924683 420.238220
27 20.013220 -118.897095 462.015198 -104.210854 -21.562944 -90.995438 477.488342
[chest]
26 -84.512650 -34.090519 0.000000 3.951541 -0.269118 -175.551102 91.129311
27 -84.512650 -34.090519 0.000000 0.780484 0.326714 175.394760 91.129311
[L_mid_tent01]
26 27.299330 22.177631 -249.918289 -1.201276 28.580755 67.623116 252.381165
27 27.299322 22.177637 -249.918289 -1.106077 29.386295 67.667625 252.381165
[R_mid_tent01]
26 23.228794 24.509907 226.238495 171.828979 -23.929453 60.384312 228.744751
27 23.228794 24.509907 226.238495 171.081482 -24.212076 62.166798 228.744751
[spine01]
26 -0.361383 -0.195265 0.000000 0.001845 0.001451 13.654368 0.410763
27 -0.361383 -0.195265 0.000000 0.001845 0.001451 13.654368 0.410763
[Bip01_Neck]
26 165.484543 71.581718 0.000119 176.643677 -1.657967 43.431911 180.302734
27 165.484543 71.581718 0.000119 176.643677 -1.657967 43.431911 180.302734
[L_humerus]
26 -13.983130 -135.272980 -120.471481 138.211868 78.224884 -130.763168 181.680161
27 -13.983130 -135.272980 -120.471481 155.641342 70.748596 -112.725616 181.680161
[R_humerus]
26 -13.983309 -135.273102 125.287651 -175.756607 -45.306324 -88.559280 184.909012
27 -13.983309 -135.273102 125.287651 -176.379929 -34.622658 -87.599747 184.909012
[weapon_bone]
26 235.964890 -300.705902 0.000000 0.000000 -89.951546 -128.212341 382.234833
27 235.964890 -300.705902 0.000000 0.000000 -89.951546 -128.212341 382.234833
[Bip01_Head]
26 213.390503 185.866089 9.835586 4.439051 -0.436211 -43.900154 283.157990
27 213.357239 185.958252 8.645782 4.438351 -0.183088 -43.897949 283.154633
[eye_left_bone]
26 -24.626970 125.451866 -64.772606 0.000000 -90.000000 -99.840431 143.318359
27 -24.626970 125.451866 -64.772606 0.000000 -90.000000 -99.840431 143.318359
[eye_right_bone]
26 -24.626970 125.451866 64.327362 0.000000 -89.965736 80.156380 143.117676
27 -24.626970 125.451866 64.327362 0.000000 -89.965736 80.156380 143.117676
[L_forearm]
26 322.776093 0.000000 -0.000119 0.000119 -0.002344 -95.807457 322.776093
27 322.776093 0.000000 -0.000119 0.000119 -0.002344 -95.807457 322.776093
[L_front_hand]
26 241.149185 -0.042021 -3.300071 -178.667953 -1.835447 -27.422350 241.171753
27 241.149185 -0.042021 -3.300071 -178.667953 -1.835447 -27.422342 241.171753
[L_weapon_bone]
26 156.183838 0.000000 0.000000 0.000014 0.000007 0.000001 156.183838
27 156.183838 0.000000 0.000000 0.000014 0.000007 0.000001 156.183838
[L_front_hand01_01]
26 86.095154 20.947098 -0.655860 -0.359433 -0.482613 74.612556 88.609184
27 86.095154 20.947098 -0.655860 -0.365735 -0.477812 75.179466 88.609184
[L_front_hand02_01]
26 86.935165 -11.437475 24.513514 153.214294 -59.547077 -59.995953 91.046425
27 86.935165 -11.437475 24.513514 154.083481 -59.794327 -61.001266 91.046425
[L_front_hand03_01]
26 86.637497 -14.123976 -20.424902 -152.821930 57.770218 -61.413536 90.126129
27 86.637497 -14.123976 -20.424902 -153.626984 58.028236 -62.364826 90.126129
[L_front_hand01_02]
26 71.020905 -0.000179 0.000030 0.000327 -0.002324 -106.030190 71.020905
27 71.020905 -0.000179 0.000030 0.000329 -0.002324 -106.126221 71.020905
[L_front_hand02_02]
26 71.020927 -0.000119 0.000060 0.000327 -0.002324 -106.030190 71.020927
27 71.020927 -0.000119 0.000060 0.000329 -0.002324 -106.126221 71.020927
[L_front_hand03_02]
26 71.020905 -0.000060 0.000060 0.000327 -0.002324 -106.030190 71.020905
27 71.020905 -0.000060 0.000060 0.000329 -0.002324 -106.126221 71.020905
[R_forearm]
26 322.776428 -0.000060 0.000030 0.209504 0.012586 -94.339050 322.776428
27 322.776428 -0.000060 0.000030 0.209504 0.012586 -94.339050 322.776428
[R_front_hand]
26 238.847015 -0.006795 2.210259 -2.635298 -10.645461 -26.312506 238.857239
27 238.847015 -0.006795 2.210259 -2.635298 -10.645461 -26.312506 238.857239
[R_weapon_bone]
26 155.664093 0.002503 -0.000030 0.003487 0.001180 -90.988930 155.664078
27 155.664093 0.002503 -0.000030 0.003487 0.001180 -90.988930 155.664078
[R_front_hand01_01]
26 87.624611 14.231146 22.918642 -154.633514 -59.950626 61.746063 91.683487
27 87.624611 14.231146 22.918642 -154.633499 -59.950619 61.746044 91.683487
[R_front_hand02_01]
26 89.356956 14.367283 -19.491137 154.602676 58.302864 63.744400 92.579636
27 89.356956 14.367283 -19.491137 154.602661 58.302856 63.744389 92.579636
[R_front_hand03_01]
26 87.286232 -22.307278 -0.143439 0.162155 -0.423168 -75.767906 90.091743
27 87.286232 -22.307278 -0.143439 0.162155 -0.423168 -75.767921 90.091743
[R_front_hand01_02]
26 71.020905 0.000060 0.000119 0.002323 -0.000334 106.381714 71.020905
27 71.020905 0.000060 0.000119 0.002323 -0.000334 106.381714 71.020905
[R_front_hand02_02]
26 71.020844 -0.000030 -0.000119 0.002323 -0.000334 106.381714 71.020836
27 71.020844 -0.000030 -0.000119 0.002323 -0.000334 106.381714 71.020836
[R_front_hand03_02]
26 71.020905 0.000000 0.000030 0.002323 -0.000334 106.381714 71.020905
27 71.020905 0.000000 0.000030 0.002323 -0.000334 106.381714 71.020905
[null_rope01_connect]
26 328.732483 0.000000 -0.000238 -143.769821 -45.821442 -171.233337 328.732483
27 328.732483 0.000000 -0.000238 -143.284683 -46.404751 -172.104858 328.732483
[Rope1_Seg01]
26 0.000000 0.000000 0.000000 72.734093 -47.899109 -146.295517 0.000000
27 0.000000 0.000000 0.000000 73.524033 -45.248356 -146.841354 0.000000
[Rope1_Seg02]
26 139.999863 -0.000179 0.000000 2.210209 -3.707935 -6.809625 139.999863
27 139.999863 -0.000179 0.000000 2.854847 -4.159498 -7.532952 139.999863
[Rope1_Seg03]
26 139.999924 0.000060 -0.000060 11.895440 -12.801998 -23.209455 139.999924
27 139.999924 0.000060 -0.000060 18.527872 -16.170139 -30.346903 139.999924
[Rope1_Seg04]
26 139.999924 -0.000060 -0.000119 51.090710 -32.599415 -64.093445 139.999924
27 139.999924 -0.000060 -0.000119 49.891232 -37.353172 -59.090931 139.999924
[Rope1_Seg05]
26 139.999832 0.000119 -0.000060 3.729334 -22.075388 -0.791549 139.999832
27 139.999832 0.000119 -0.000060 0.938016 -19.333187 3.961820 139.999832
[Rope1_Seg06]
26 139.999954 0.000119 -0.000060 -1.372212 -14.126782 8.771958 139.999954
27 139.999954 0.000119 -0.000060 -1.581799 -13.432032 7.713653 139.999954
[Rope1_Seg07]
26 139.999985 0.000060 0.000000 -1.722744 -9.529975 2.522915 139.999985
27 139.999985 0.000060 0.000000 -1.724151 -8.213254 2.277784 139.999985
[Rope1_Seg09]
26 121.602913 0.000119 -0.000089 -89.793175 -1.359789 0.847147 121.602913
27 121.602913 0.000119 -0.000089 -89.793175 -1.359789 0.847147 121.602913
[L_mid_hand01]
26 103.859421 1.038730 8.195221 124.908272 -64.325722 -32.698181 104.187431
27 103.859421 1.038730 8.195221 127.696304 -66.076569 -35.766647 104.187431
[L_mid_hand02]
26 105.572853 -4.139662 -10.864139 -165.192169 42.484795 -68.028908 106.211075
27 105.572853 -4.139662 -10.864139 -167.140015 43.006081 -70.902893 106.211075
[L_mid_hand03]
26 104.641464 17.579376 -3.913581 -7.308157 17.330336 70.609497 106.179977
27 104.641464 17.579376 -3.913581 -6.629649 17.597927 72.871582 106.179977
[null_rope02_connect]
26 328.732849 0.000179 -0.000119 -71.610016 72.043472 57.881824 328.732849
27 328.732849 0.000179 -0.000119 -77.558296 71.641518 53.566376 328.732849
[Rope2_Seg01]
26 0.000055 0.000068 0.000085 155.561844 32.222816 -57.508915 0.000122
27 0.000054 0.000064 0.000088 148.385880 31.023252 -59.726383 0.000122
[Rope2_Seg02]
26 139.999741 -0.000060 -0.000119 47.061859 -10.022001 -19.582998 139.999756
27 139.999741 -0.000060 -0.000119 54.643902 -8.514929 -24.112263 139.999756
[Rope2_Seg03]
26 140.000107 0.000030 0.000000 11.823958 -9.032749 -4.841528 140.000107
27 140.000107 0.000030 0.000000 14.998054 -13.473156 -6.743635 140.000107
[Rope2_Seg04]
26 139.999802 0.000000 -0.000060 8.428329 -40.792522 1.359702 139.999802
27 139.999802 0.000000 -0.000060 2.891766 -45.930332 7.106013 139.999802
[Rope2_Seg05]
26 139.999985 -0.000060 0.000119 -4.618205 -39.740810 10.088648 139.999985
27 139.999985 -0.000060 0.000119 -3.639208 -30.306833 8.497797 139.999985
[Rope2_Seg06]
26 139.999893 -0.000030 -0.000119 -1.717714 -9.902297 1.793879 139.999893
27 139.999893 -0.000030 -0.000119 -1.328136 -8.102820 1.692399 139.999893
[Rope2_Seg07]
26 139.999893 0.000060 -0.000060 -1.096963 -4.711321 0.715052 139.999893
27 139.999893 0.000060 -0.000060 -0.861884 -4.093674 0.759973 139.999893
[Rope2_Seg09]
26 121.338966 0.000089 -0.000060 33.793236 -1.359788 -0.847141 121.338966
27 121.338966 0.000089 -0.000060 33.793236 -1.359788 -0.847141 121.338966
[R_mid_hand01]
26 104.680779 11.144459 -10.335981 -29.839331 38.782547 50.244728 105.778534
27 104.680779 11.144459 -10.335981 -26.991882 40.639965 54.704483 105.778534
[R_mid_hand02]
26 104.070427 2.443552 8.231699 65.096085 -53.911819 21.097559 104.424065
27 104.070427 2.443552 8.231699 62.577362 -57.416607 24.150816 104.424065
[R_mid_hand03]
26 106.028137 -11.221827 -5.996406 -172.771393 14.103964 -59.790871 106.788818
27 106.028137 -11.221827 -5.996406 -173.762726 14.561016 -63.787186 106.788818
[spine02]
26 129.756927 0.001550 0.000119 -1.023899 -3.926965 6.770993 129.756927
27 129.756927 0.001550 0.000119 -1.023899 -3.926965 6.770993 129.756927
[spine03]
26 78.614197 0.087263 -4.898872 1.040681 4.146420 4.212376 78.766731
27 78.614212 0.087257 -4.898872 1.040680 4.146419 4.212375 78.766747
[pelvis]
26 169.435242 0.051022 0.000000 0.019518 -0.190233 -10.721436 169.435257
27 169.435242 0.051022 0.000000 0.019518 -0.190233 -10.721436 169.435257
[null_rope03_connect]
26 -1.257226 -2.466202 137.391083 -155.304016 -73.667290 -106.834976 137.418976
27 -1.257226 -2.466202 137.391083 -155.026062 -75.092552 -107.363968 137.418976
[null_rope04_connect]
26 -1.259640 -2.480268 -137.844437 -155.304016 -73.667290 -106.834976 137.872513
27 -1.259640 -2.480268 -137.844437 -155.026062 -75.092552 -107.363968 137.872513
[Rope3_Seg01]
26 -0.000008 -0.000373 -0.000153 -133.802078 -33.918331 -76.709846 0.000403
27 -0.000008 -0.000385 -0.000153 -133.083527 -32.822590 -77.755104 0.000414
[Rope3_Seg02]
26 139.999924 -0.000119 0.000060 9.516946 -23.571280 -39.564781 139.999924
27 139.999924 -0.000119 0.000060 7.900307 -22.481256 -41.050224 139.999924
[Rope3_Seg03]
26 139.999924 -0.000119 0.000119 1.364555 -5.442918 -7.471033 139.999924
27 139.999924 -0.000119 0.000119 -1.080047 -4.698247 -8.585202 139.999924
[Rope3_Seg04]
26 139.999924 0.000119 0.000000 1.868111 -5.809223 -8.103220 139.999924
27 139.999924 0.000119 0.000000 -0.507481 -5.667712 -9.163682 139.999924
[Rope3_Seg05]
26 139.999924 -0.000238 0.000060 175.690353 -16.925755 -23.891243 139.999924
27 139.999924 -0.000238 0.000060 -173.352188 -16.416265 -28.083342 139.999924
[Rope3_Seg06]
26 139.999893 -0.000119 -0.000060 8.783592 17.087210 33.702171 139.999893
27 139.999893 -0.000119 -0.000060 5.299201 19.789288 31.434246 139.999893
[Rope3_Seg07]
26 139.999771 0.000060 -0.000119 1.504354 7.656978 12.130696 139.999771
27 139.999771 0.000060 -0.000119 1.190097 7.390208 11.043626 139.999771
[Rope3_Seg08]
26 139.999985 -0.000060 0.000000 0.754113 3.600473 5.495243 139.999985
27 139.999985 -0.000060 0.000000 0.677198 3.442888 5.006228 139.999985
[Rope3_Seg09]
26 90.185997 -0.000179 -0.000060 89.793228 -1.359877 -0.847183 90.185997
27 90.185997 -0.000179 -0.000060 89.793228 -1.359877 -0.847183 90.185997
[R_rear_hand01]
26 103.366196 -6.073594 -10.757982 -170.781677 22.979740 -56.828255 104.101845
27 103.366196 -6.073594 -10.757982 -172.436630 23.546103 -61.016525 104.101845
[R_rear_hand02]
26 100.509819 12.039542 -7.992327 -23.183130 31.959583 54.045361 101.543350
27 100.509819 12.039542 -7.992327 -20.870378 33.419476 58.329952 101.543350
[R_rear_hand03]
26 101.539970 5.215704 5.435467 79.632996 -56.564831 12.543679 101.819031
27 101.539970 5.215704 5.435467 78.426208 -60.383156 13.958281 101.819031
[Rope4_Seg01]
26 -0.000055 -0.000085 0.000000 45.824257 -25.463194 -91.216072 0.000101
27 -0.000054 -0.000081 0.000000 46.601685 -26.898836 -93.037613 0.000097
[Rope4_Seg02]
26 139.999985 0.000060 0.000119 2.088741 -37.643612 11.063394 139.999985
27 139.999985 0.000060 0.000119 3.247540 -37.000221 9.646384 139.999985
[Rope4_Seg03]
26 139.999924 0.000000 -0.000238 17.095346 -29.752499 14.377494 139.999924
27 139.999924 0.000000 -0.000238 17.967915 -28.995411 14.136415 139.999924
[Rope4_Seg04]
26 139.999985 0.000000 0.000119 16.285925 -12.936961 10.731643 139.999985
27 139.999985 0.000000 0.000119 18.184101 -14.026196 11.253585 139.999985
[Rope4_Seg05]
26 139.999802 -0.000060 -0.000119 28.546589 -16.362434 20.211994 139.999802
27 139.999802 -0.000060 -0.000119 32.660095 -18.145443 22.748039 139.999802
[Rope4_Seg06]
26 139.999924 0.000000 0.000060 19.832422 -3.645882 21.917763 139.999924
27 139.999924 0.000000 0.000060 18.566505 -1.690123 21.579014 139.999924
[Rope4_Seg07]
26 139.999802 0.000000 0.000000 5.502654 1.874574 8.646950 139.999802
27 139.999802 0.000000 0.000000 4.837080 2.293833 8.110995 139.999802
[Rope4_Seg08]
26 139.999924 0.000000 0.000119 0.819037 1.415081 4.459518 139.999924
27 139.999924 0.000000 0.000119 0.502894 1.547445 4.129514 139.999924
[Rope4_Seg09]
26 90.185791 0.000060 0.000060 -135.617828 2.228885 0.850567 90.185791
27 90.185791 0.000060 0.000060 -135.617828 2.228885 0.850567 90.185791
[L_rear_hand01]
26 101.696655 -8.392275 -7.654577 -16.229391 -35.681812 113.503822 102.329041
27 101.696655 -8.392275 -7.654577 -14.875780 -36.204914 111.195358 102.329041
[L_rear_hand02]
26 102.726799 -1.568258 5.773216 75.121292 67.292435 162.363373 102.900848
27 102.726799 -1.568258 5.773216 73.822166 69.166550 160.967651 102.900848
[L_rear_hand03]
26 104.552910 9.721220 -10.420293 -175.569016 -24.291685 -111.264969 105.519653
27 104.552910 9.721220 -10.420293 -176.448364 -24.423321 -109.138062 105.519653
